PathFileType	4	(X/Y/Z)	pose2sim_0-814.trc
DataRate	CameraRate	NumFrames	NumMarkers	Units	OrigDataRate	OrigDataStartFrame	OrigNumFrames
50	50	6	22	m	50	101	815
Frame#	Time	Hip			RHip			RKnee			RAnkle			RBigToe			RSmallToe			RHeel			LHip			LKnee			LAnkle			LBigToe			LSmallToe			LHeel			Neck			Head			Nose			RShoulder			RElbow			RWrist			LShoulder			LElbow			LWrist			
		X1	Y1	Z1	X2	Y2	Z2	X3	Y3	Z3	X4	Y4	Z4	X5	Y5	Z5	X6	Y6	Z6	X7	Y7	Z7	X8	Y8	Z8	X9	Y9	Z9	X10	Y10	Z10	X11	Y11	Z11	X12	Y12	Z12	X13	Y13	Z13	X14	Y14	Z14	X15	Y15	Z15	X16	Y16	Z16	X17	Y17	Z17	X18	Y18	Z18	X19	Y19	Z19	X20	Y20	Z20	X21	Y21	Z21	X22	Y22	Z22	
101	2.02	0.1369090911890758	0.9624058947971631	-0.09596810177611259	0.01877404385530199	0.9530191527462772	-0.10681453957506348	-0.01454572717674519	0.5215582810186659	-0.1287952953045177	-0.04381228321244386	0.0901361140888117	-0.1585038153210597	-0.07351487450028482	0.03471723094022376	0.003721140806887842	-0.11520499226675504	0.038774401256258646	-0.049585247209495455	-0.0334094832530356	0.049606301576062294	-0.19334266807060183	0.2563587739789896	0.9511441999617376	-0.0959258186167257	0.29388229285291806	0.5197250553412835	-0.11812572999858716	0.3250713491179348	0.08953932069756958	-0.14355292466371924	0.3582956135574688	0.03289031546207595	0.03049962591008385	0.40297482783784533	0.036023433212748125	-0.02795755611708592	0.3160882178202241	0.04298161643570106	-0.1735156915281477	0.1457903803126448	1.5601069716034435	-0.03602570273380278	0.14442072849730317	1.804099054767149	0.022375353570792532	0.14114964094224042	1.66774228805428	0.1318737213342976	-0.03997955964733749	1.4640239067089735	-0.06055612219598701	-0.13877705402613233	1.1835173805755894	-0.011887495429560788	-0.14197163843218863	1.230138740932883	0.22595555817350496	0.32947859240264676	1.45414501913566	-0.06318135864537412	0.42445324647224353	1.1659856596245417	-0.05521769733770235	0.4618179213868912	1.174864101337722	0.21839359310790754
102	2.04	0.1380576247260094	0.9607042454435585	-0.09804110871400289	0.021534987452997492	0.9512328517059457	-0.10820908907342122	-0.01006845380939782	0.5204533783086165	-0.1273563120413698	-0.04199163184660468	0.08939179131716979	-0.16155193058216946	-0.07342179666374427	0.03456959632959221	-0.0033978944438993208	-0.11459618063059034	0.039180976670356756	-0.05297350816045205	-0.03300203301189507	0.048922656578885095	-0.19813091120532872	0.2590451642467306	0.952298416737466	-0.10190270541307012	0.29487333934853677	0.521211959324973	-0.11526555608061755	0.32638602021420376	0.09171291511196755	-0.1407426031945894	0.3612385275233731	0.033141179943688766	0.027349802190234092	0.4046315639059348	0.03962449753702388	-0.028548580363080098	0.3158153409734642	0.04343704269417818	-0.17474430718157857	0.1443543855399324	1.5585185865908815	-0.03315068343792843	0.14460585872979828	1.8014709982039576	0.014638675590023336	0.14619306812925983	1.6637751009687523	0.12740052669810434	-0.041558584837416396	1.462453580674604	-0.06413563801602926	-0.1407256770871727	1.1840937171293642	0.0038752886363337302	-0.12241377127026533	1.2549915427246936	0.2696535323024243	0.3292088420782536	1.4526551803691143	-0.06298291692004884	0.4167153857332728	1.169548682988866	-0.03232810011042756	0.46519947297312375	1.2005905940557338	0.20348515103763862
103	2.06	0.13896557071363957	0.9603781395828468	-0.09944414282810715	0.02272763008129291	0.9505531834079466	-0.1098856610862749	-0.012227581795296389	0.5188137780107519	-0.13347294274774826	-0.04289404795440726	0.08673844652632907	-0.15656495629296774	-0.07663239329562908	0.03515137601756756	-0.0021620051676317044	-0.11808361189543097	0.0398666234928021	-0.05161548043917752	-0.032046717911379544	0.04612902522289879	-0.19464001019729088	0.2594780197427513	0.9487797315475717	-0.09665618045229232	0.29361816957708964	0.5209970953195365	-0.11852808810601323	0.3251338997434317	0.09065279710498382	-0.14584823138404102	0.3549027490668485	0.03530888053203685	0.03014801849168573	0.4002005437972353	0.03855591424582012	-0.028838245679350248	0.31436277486427755	0.04263921439761181	-0.1791158654130472	0.14618534142587256	1.5604278129629268	-0.02763216431609745	0.14511968460931837	1.8030362184093782	0.024378529536062975	0.1423254407869049	1.6682610629425985	0.12763615393194344	-0.043533211135533045	1.4610971144363096	-0.05714632271036283	-0.13749479677670365	1.1834324112106196	0.018008320992825053	-0.11260757997709638	1.277640351961087	0.29439618291472514	0.332526578679021	1.4554234398040478	-0.06022087494026615	0.4198060219115662	1.1663343889919522	-0.038668460154011125	0.45640848879102464	1.221859255985491	0.2120119399068988
104	2.08	0.14039738354779774	0.9614750518946593	-0.09912958041229789	0.019046088043544646	0.9520124042224178	-0.1031280244794886	-0.009507483025019076	0.5200168532234665	-0.12760227052418352	-0.04218452085652648	0.08245654617052994	-0.15890601064181933	-0.06786091872075763	0.02854322402788515	0.024297220015778324	-0.11332156049567861	0.0320199264012816	-0.029128079182722512	-0.033500989996984566	0.03499364081597899	-0.20011685085353856	0.26019891261824285	0.9505919046505052	-0.0916809820251535	0.2938090945040171	0.5197913697800715	-0.11168939083323999	0.3254805630076009	0.08544155950383192	-0.14872106741432703	0.35020296858323346	0.029389718973425356	0.05070859512601668	0.3922101997509722	0.028390115233873178	-0.014332638772111321	0.31498671143032736	0.041209679039199754	-0.18785720668092198	0.14692509861659653	1.5621171326644054	-0.0385144542570644	0.14159181684692615	1.799169713367392	0.02688104384553853	0.1416028096618204	1.6604930057473815	0.12835042268312014	-0.04697520025361305	1.4658409548053117	-0.06991771678767676	-0.1423381156967869	1.1746824029827265	0.00648699951505059	-0.11751380548944138	1.2885901494984673	0.2650355213915963	0.33272378267251157	1.4542446195725607	-0.06718671526644811	0.43252647154105217	1.1564559980206732	-0.0449466689848567	0.4520911777758869	1.2370315480634713	0.23190749721608828
105	2.1	0.13990480884166895	0.9622744387664098	-0.09823433518967731	0.023004008839710353	0.9550595903907252	-0.10574247227730013	-0.011930707423266516	0.5193491734903671	-0.13209751232559688	-0.04273717067441013	0.09038031886527592	-0.15815038467166675	-0.0718026741417179	0.03478976668050124	0.002205734985220821	-0.11471214484538018	0.037371935463025925	-0.048234765059750405	-0.03202079907128654	0.050291880751444897	-0.1961087817484184	0.2590594881365915	0.953192787415281	-0.09703984896457754	0.29216681655354537	0.5218305989616501	-0.11720273032914268	0.3252236686900476	0.09122466379869627	-0.14139268539692326	0.35877433333388986	0.03548107758721003	0.0342896774835106	0.4036857906445823	0.038745753037462846	-0.024521051472867095	0.31494277689398037	0.04493475046527058	-0.17808019631056793	0.14692860930441184	1.5610727972063283	-0.034280732914318116	0.14392979711693002	1.8028822187292821	0.027659493410560808	0.14108153275983196	1.6645420268654387	0.1272692068260846	-0.03920191313118344	1.4682965822418965	-0.056854533754027915	-0.13649392810314234	1.1884476816237948	0.03399626477549988	-0.10272102775024756	1.3185808321167445	0.2786110661018937	0.3324737179609831	1.4562111950903371	-0.06559114935009909	0.4252650674750945	1.166058572263932	-0.0274511049146948	0.43079284004719604	1.2726006905399714	0.22213031884136564
106	2.12	0.14066621118817746	0.9597717991524164	-0.10238325743992968	0.024415054641219923	0.9512273748244213	-0.10522683342572926	-0.010415091849448058	0.5221566562038478	-0.13114894618607764	-0.04266721363697696	0.08794936663856902	-0.15740239617230023	-0.07145932500370614	0.03821123505084837	-0.0001503948955168026	-0.11424925941423542	0.039348487747958474	-0.05325359530086345	-0.030215826540473115	0.04627905387898981	-0.19886170750971968	0.26158198185164877	0.9477398809632325	-0.09894223314723045	0.2912914238055055	0.5224588532221905	-0.11754441847707478	0.3242675530843295	0.09159446564317623	-0.14132742318323466	0.3564393017552452	0.03164636541148879	0.03265817834268211	0.40413601483895856	0.036401558970576245	-0.02777206797984635	0.3151035278331322	0.046772891239484055	-0.1777843234904182	0.14946091813137707	1.5636780896169316	-0.027429187090093562	0.14517934143848904	1.8032616108461603	0.029814421375695663	0.14318644755289586	1.6678248174679433	0.1305669802058843	-0.04199665751498209	1.470345210749056	-0.05218397183738765	-0.13816544072501347	1.1945394702836032	0.03374235140727719	-0.10085838650718083	1.3373728263272242	0.2736680783537807	0.332074016564042	1.4581665173682445	-0.06951795227748492	0.42734393448513686	1.1697216192520432	-0.018085191305355013	0.41950180163986517	1.2918125053744447	0.22189414534056034
